C:\Users\Nicos\Documents\OpenSimProjects\SprintingProject\Study1\PredictiveResults\IC_pred_Sprinting_optimum_28-October-2023__13-58-45_p02_maxVel_01___IKTD_Minus_6_GRF.mot
version=1
nRows=6
nColumns=127
inDegrees=yes
endheader
time	ground_force_vx	ground_force_vy	ground_force_vz	ground_force_px	ground_force_py	ground_force_pz	ground_torque_x	ground_torque_y	ground_torque_z	1_ground_force_vx	1_ground_force_vy	1_ground_force_vz	1_ground_force_px	1_ground_force_py	1_ground_force_pz	1_ground_torque_x	1_ground_torque_y	1_ground_torque_z	2_ground_force_vx	2_ground_force_vy	2_ground_force_vz	2_ground_force_px	2_ground_force_py	2_ground_force_pz	2_ground_torque_x	2_ground_torque_y	2_ground_torque_z	3_ground_force_vx	3_ground_force_vy	3_ground_force_vz	3_ground_force_px	3_ground_force_py	3_ground_force_pz	3_ground_torque_x	3_ground_torque_y	3_ground_torque_z	4_ground_force_vx	4_ground_force_vy	4_ground_force_vz	4_ground_force_px	4_ground_force_py	4_ground_force_pz	4_ground_torque_x	4_ground_torque_y	4_ground_torque_z	5_ground_force_vx	5_ground_force_vy	5_ground_force_vz	5_ground_force_px	5_ground_force_py	5_ground_force_pz	5_ground_torque_x	5_ground_torque_y	5_ground_torque_z	6_ground_force_vx	6_ground_force_vy	6_ground_force_vz	6_ground_force_px	6_ground_force_py	6_ground_force_pz	6_ground_torque_x	6_ground_torque_y	6_ground_torque_z	7_ground_force_vx	7_ground_force_vy	7_ground_force_vz	7_ground_force_px	7_ground_force_py	7_ground_force_pz	7_ground_torque_x	7_ground_torque_y	7_ground_torque_z	8_ground_force_vx	8_ground_force_vy	8_ground_force_vz	8_ground_force_px	8_ground_force_py	8_ground_force_pz	8_ground_torque_x	8_ground_torque_y	8_ground_torque_z	9_ground_force_vx	9_ground_force_vy	9_ground_force_vz	9_ground_force_px	9_ground_force_py	9_ground_force_pz	9_ground_torque_x	9_ground_torque_y	9_ground_torque_z	10_ground_force_vx	10_ground_force_vy	10_ground_force_vz	10_ground_force_px	10_ground_force_py	10_ground_force_pz	10_ground_torque_x	10_ground_torque_y	10_ground_torque_z	11_ground_force_vx	11_ground_force_vy	11_ground_force_vz	11_ground_force_px	11_ground_force_py	11_ground_force_pz	11_ground_torque_x	11_ground_torque_y	11_ground_torque_z	12_ground_force_vx	12_ground_force_vy	12_ground_force_vz	12_ground_force_px	12_ground_force_py	12_ground_force_pz	12_ground_torque_x	12_ground_torque_y	12_ground_torque_z	13_ground_force_vx	13_ground_force_vy	13_ground_force_vz	13_ground_force_px	13_ground_force_py	13_ground_force_pz	13_ground_torque_x	13_ground_torque_y	13_ground_torque_z
0.213381	-0.000000	0.000000	-0.000000	1.168809	0.187701	0.447400	0.000000	0.000000	0.000000	-0.000000	0.000000	-0.000000	1.191015	0.207668	0.466880	0.000000	0.000000	0.000000	-0.000000	0.000000	-0.000000	1.206277	0.217465	0.463484	0.000000	0.000000	0.000000	-0.000000	0.000000	-0.000000	1.201602	0.215956	0.441449	0.000000	0.000000	0.000000	-0.000000	0.000000	-0.000000	1.242361	0.257302	0.491321	0.000000	0.000000	0.000000	-0.000000	0.000000	-0.000000	1.216337	0.231283	0.457561	0.000000	0.000000	0.000000	-0.000000	0.000000	-0.000000	1.256577	0.286555	0.433872	0.000000	0.000000	0.000000	-0.000000	0.000000	-0.000000	2.485758	0.101556	0.150692	0.000000	0.000000	0.000000	-0.000000	0.000000	-0.000000	2.441653	0.105985	0.129632	0.000000	0.000000	0.000000	-0.000000	0.000000	0.000000	2.409883	0.103701	0.136713	0.000000	0.000000	0.000000	-0.000000	0.000000	0.000000	2.413101	0.098351	0.156503	0.000000	0.000000	0.000000	-0.000000	0.000000	0.000000	2.324330	0.112202	0.108140	0.000000	0.000000	0.000000	-0.000000	0.000000	0.000000	2.380190	0.102916	0.140693	0.000000	0.000000	0.000000	-0.000000	0.000000	0.000000	2.261416	0.099780	0.156613	0.000000	0.000000	0.000000
0.214866	-0.000000	0.000000	-0.000000	1.190933	0.189323	0.448185	0.000000	0.000000	0.000000	-0.000000	0.000000	-0.000000	1.213189	0.209302	0.467558	0.000000	0.000000	0.000000	-0.000000	0.000000	-0.000000	1.228427	0.219103	0.464093	0.000000	0.000000	0.000000	-0.000000	0.000000	-0.000000	1.223671	0.217585	0.442078	0.000000	0.000000	0.000000	-0.000000	0.000000	-0.000000	1.264571	0.258958	0.491748	0.000000	0.000000	0.000000	-0.000000	0.000000	-0.000000	1.238449	0.232921	0.458117	0.000000	0.000000	0.000000	-0.000000	0.000000	-0.000000	1.278537	0.288197	0.434213	0.000000	0.000000	0.000000	-0.000000	0.000000	-0.000000	2.500268	0.099674	0.150252	0.000000	0.000000	0.000000	-0.000000	0.000000	-0.000000	2.456162	0.104247	0.129318	0.000000	0.000000	0.000000	-0.000000	0.000000	0.000000	2.424665	0.102175	0.136296	0.000000	0.000000	0.000000	-0.000000	0.000000	0.000000	2.427862	0.096767	0.156025	0.000000	0.000000	0.000000	-0.000000	0.000000	0.000000	2.339142	0.110728	0.107696	0.000000	0.000000	0.000000	-0.000000	0.000000	0.000000	2.394967	0.101367	0.140221	0.000000	0.000000	0.000000	-0.000000	0.000000	0.000000	2.276175	0.098132	0.155921	0.000000	0.000000	0.000000
0.215514	-0.000000	0.000000	-0.000000	1.200651	0.190008	0.448533	0.000000	0.000000	0.000000	-0.000000	0.000000	-0.000000	1.222925	0.209993	0.467859	0.000000	0.000000	0.000000	-0.000000	0.000000	-0.000000	1.238151	0.219796	0.464363	0.000000	0.000000	0.000000	-0.000000	0.000000	-0.000000	1.233359	0.218275	0.442357	0.000000	0.000000	0.000000	-0.000000	0.000000	-0.000000	1.274312	0.259662	0.491937	0.000000	0.000000	0.000000	-0.000000	0.000000	-0.000000	1.248153	0.233616	0.458363	0.000000	0.000000	0.000000	-0.000000	0.000000	-0.000000	1.288163	0.288896	0.434364	0.000000	0.000000	0.000000	-0.000000	0.000000	-0.000000	2.506489	0.098812	0.150054	0.000000	0.000000	0.000000	-0.000000	0.000000	-0.000000	2.462382	0.103453	0.129182	0.000000	0.000000	0.000000	-0.000000	0.000000	0.000000	2.431011	0.101481	0.136115	0.000000	0.000000	0.000000	-0.000000	0.000000	0.000000	2.434198	0.096047	0.155818	0.000000	0.000000	0.000000	-0.000000	0.000000	0.000000	2.345502	0.110063	0.107508	0.000000	0.000000	0.000000	-0.000000	0.000000	0.000000	2.401311	0.100665	0.140017	0.000000	0.000000	0.000000	-0.000000	0.000000	0.000000	2.282510	0.097397	0.155627	0.000000	0.000000	0.000000
0.217562	-0.000000	0.000000	-0.000000	1.231581	0.192082	0.449653	0.000000	0.000000	0.000000	-0.000000	0.000000	-0.000000	1.253896	0.212093	0.468825	0.000000	0.000000	0.000000	-0.000000	0.000000	-0.000000	1.269073	0.221905	0.465232	0.000000	0.000000	0.000000	-0.000000	0.000000	-0.000000	1.264170	0.220370	0.443254	0.000000	0.000000	0.000000	-0.000000	0.000000	-0.000000	1.305256	0.261811	0.492543	0.000000	0.000000	0.000000	-0.000000	0.000000	-0.000000	1.279001	0.235730	0.459154	0.000000	0.000000	0.000000	-0.000000	0.000000	-0.000000	1.318713	0.291029	0.434844	0.000000	0.000000	0.000000	-0.000000	0.000000	-0.000000	2.525685	0.095932	0.149411	0.000000	0.000000	0.000000	-0.000000	0.000000	-0.000000	2.481579	0.100808	0.128752	0.000000	0.000000	0.000000	-0.000000	0.000000	0.000000	2.450634	0.099179	0.135550	0.000000	0.000000	0.000000	-0.000000	0.000000	0.000000	2.453787	0.093665	0.155169	0.000000	0.000000	0.000000	-0.000000	0.000000	0.000000	2.365172	0.107876	0.106939	0.000000	0.000000	0.000000	-0.000000	0.000000	0.000000	2.420927	0.098346	0.139389	0.000000	0.000000	0.000000	-0.000000	0.000000	0.000000	2.302100	0.095014	0.154744	0.000000	0.000000	0.000000
0.219046	-0.000000	0.000000	-0.000000	1.254212	0.193496	0.450485	0.000000	0.000000	0.000000	-0.000000	0.000000	-0.000000	1.276539	0.213531	0.469542	0.000000	0.000000	0.000000	-0.000000	0.000000	-0.000000	1.291672	0.223354	0.465877	0.000000	0.000000	0.000000	-0.000000	0.000000	-0.000000	1.286689	0.221807	0.443921	0.000000	0.000000	0.000000	-0.000000	0.000000	-0.000000	1.327838	0.263297	0.492991	0.000000	0.000000	0.000000	-0.000000	0.000000	-0.000000	1.301534	0.237184	0.459742	0.000000	0.000000	0.000000	-0.000000	0.000000	-0.000000	1.340981	0.292505	0.435199	0.000000	0.000000	0.000000	-0.000000	0.000000	-0.000000	2.539172	0.093702	0.148930	0.000000	0.000000	0.000000	-0.000000	0.000000	-0.000000	2.495071	0.098765	0.128442	0.000000	0.000000	0.000000	-0.000000	0.000000	0.000000	2.464454	0.097404	0.135148	0.000000	0.000000	0.000000	-0.000000	0.000000	0.000000	2.467582	0.091834	0.154708	0.000000	0.000000	0.000000	-0.000000	0.000000	0.000000	2.379030	0.106209	0.106555	0.000000	0.000000	0.000000	-0.000000	0.000000	0.000000	2.434743	0.096569	0.138949	0.000000	0.000000	0.000000	-0.000000	0.000000	0.000000	2.315897	0.093230	0.154153	0.000000	0.000000	0.000000
0.219694	-0.000000	0.000000	-0.000000	1.264151	0.194090	0.450855	0.000000	0.000000	0.000000	-0.000000	0.000000	-0.000000	1.286479	0.214137	0.469861	0.000000	0.000000	0.000000	-0.000000	0.000000	-0.000000	1.301591	0.223965	0.466164	0.000000	0.000000	0.000000	-0.000000	0.000000	-0.000000	1.296572	0.222413	0.444217	0.000000	0.000000	0.000000	-0.000000	0.000000	-0.000000	1.337739	0.263927	0.493189	0.000000	0.000000	0.000000	-0.000000	0.000000	-0.000000	1.311420	0.237798	0.460002	0.000000	0.000000	0.000000	-0.000000	0.000000	-0.000000	1.350738	0.293131	0.435355	0.000000	0.000000	0.000000	-0.000000	0.000000	-0.000000	2.544953	0.092692	0.148717	0.000000	0.000000	0.000000	-0.000000	0.000000	-0.000000	2.500855	0.097841	0.128308	0.000000	0.000000	0.000000	-0.000000	0.000000	0.000000	2.470385	0.096601	0.134975	0.000000	0.000000	0.000000	-0.000000	0.000000	0.000000	2.473502	0.091006	0.154509	0.000000	0.000000	0.000000	-0.000000	0.000000	0.000000	2.384979	0.105459	0.106397	0.000000	0.000000	0.000000	-0.000000	0.000000	0.000000	2.440672	0.095768	0.138763	0.000000	0.000000	0.000000	-0.000000	0.000000	0.000000	2.321819	0.092436	0.153910	0.000000	0.000000	0.000000
